<svg xmlns="http://www.w3.org/2000/svg" version="1.1" xmlns:xlink="http://www.w3.org/1999/xlink" xmlns:svgjs="http://svgjs.dev/svgjs" viewBox="0 0 3.763727947533105 3.1502442106784057"><g transform="matrix(1,0,0,1,1.838824358044322,3.0510254944474138)"><g><path d=" M -1.1925276098501805 -2.326430385675711 Q -1.1452753684704076 -2.363501403571302 -1.08932102050893 -2.393435670722446 Q -1.0333666725474528 -2.4233699378735905 -0.9730188023836341 -2.442166605043484 Q -0.9126709322198154 -2.460963272213378 -0.8506186918020979 -2.4665126066762566 Q -0.7885664513843803 -2.4720619411391347 -0.7298039800455853 -2.4604458678328616 Q -0.6710415087067902 -2.4488297945265884 -0.6179151809186312 -2.417897193638064 Q -0.5647888531304721 -2.3869645927495404 -0.5219914178363753 -2.3324132246525666 Q -0.4791939825422784 -2.2778618565555933 -0.4619339736286372 -2.216308424834194 Q -0.444673964714996 -2.1547549931127956 -0.45272642121391926 -2.0938233764296803 Q -0.46077887771284254 -2.0328917597465646 -0.4937299287509893 -1.976009732869024 Q -0.5266809797891361 -1.9191277059914833 -0.5843056643986152 -1.873919147582226 Q -0.611581348447102 -1.8525204299351776 -0.6439424544045527 -1.8336484882638175 Q -0.6763035603620036 -1.8147765465924575 -0.7121306557974973 -1.800322497407824 Q -0.7479577512329911 -1.7858684482231906 -0.7859890343469749 -1.7762016029347083 Q -0.8240203174609587 -1.7665347576462263 -0.8633219107759699 -1.7636290069396017 Q -0.8701624609641484 -1.7098543301804638 -0.8968130114060044 -1.6619492663413273 Q -0.9234635618478604 -1.6140442025021908 -0.9676424867151276 -1.5793843077217604 Q -0.9914606896870457 -1.5606981035792673 -1.0164250415979887 -1.5498013264488195 Q -1.041389393508932 -1.5389045493183717 -1.0644000439136994 -1.5369879076029103 Q -1.0874106943184667 -1.5350712658874488 -1.1072058414175054 -1.5425040709963984 Q -1.1270009885165442 -1.549936876105348 -1.1405635560393212 -1.5672242814881918 Q -1.1523177812257281 -1.5822066994866564 -1.1550738454659275 -1.6011454072580085 Q -1.1578299097061269 -1.6200841150293603 -1.1520282178061547 -1.6407717525185277 Q -1.1462265259061826 -1.6614593900076948 -1.1317312358259801 -1.6821406827436978 Q -1.117235945745778 -1.7028219754797005 -1.0945702364660495 -1.7206040084540084 Q -1.0277256023190537 -1.7730459362087467 -0.8977164662294473 -1.7956037846846793 Q -0.8973896968273944 -1.829994012841537 -0.9074290259018833 -1.8649402986649588 Q -0.9187269843993431 -1.9038640721690712 -0.9365674212639336 -1.9404478159546348 Q -0.954407858128524 -1.9770315597401986 -0.9736342580546699 -2.0122176596861507 Q -0.9928606579808157 -2.047403759632102 -1.010497331785318 -2.0813545917111966 Q -1.0281340055898205 -2.1153054237902906 -1.0388323556850723 -2.1491140690761616 Q -1.049530705780324 -2.1829227143620322 -1.0506164333725219 -2.2171357133914973 Q -1.0517021609647195 -2.2513487124209624 -1.0380187507482874 -2.286908451072958 Q -1.0356840570546306 -2.2918431777872246 -1.032610740542125 -2.2942543009023852 Q -1.0272324366452403 -2.298473766353916 -1.0194164757005 -2.2983995005807216 Q -1.0116005147557596 -2.2983252348075283 -1.0061754877466487 -2.2914102726543906 Q -0.9998462895693527 -2.2833428168090633 -1.0038301220032078 -2.2733905892058623 Q -1.0148477418273107 -2.2455077970819657 -1.013702601616558 -2.2175475668082933 Q -1.0125574614058053 -2.1895873365346206 -1.0035284392302826 -2.1606752032522643 Q -0.9944994170547601 -2.131763069969908 -0.9793004002981134 -2.1021059691155384 Q -0.9641013835414667 -2.072448868261169 -0.9467098598843865 -2.040788170411815 Q -0.9324680821613156 -2.014724392674073 -0.9173369864246983 -1.9859449290551932 Q -0.902205890688081 -1.9571654654363133 -0.8896811727252378 -1.9269618240451265 Q -0.8771564547623947 -1.8967581826539397 -0.8691854713263371 -1.8648438262556895 Q -0.8612144878902794 -1.8329294698574392 -0.8609087702042647 -1.8008972969503512 Q -0.8598390506867433 -1.801115913165078 -0.8594962732100142 -1.8010745260777439 Q -0.859153495733285 -1.80103313899041 -0.8580837762157636 -1.8012517552051368 Q -0.7863892069857144 -1.810331827789505 -0.7220044365226499 -1.8366398931381622 Q -0.6576196660595854 -1.8629479584868194 -0.607294108167307 -1.9024300994975705 Q -0.5527427400703335 -1.9452275347916674 -0.5236895749147915 -1.9971896881095805 Q -0.4946364097592495 -2.049151841427493 -0.48863210971922655 -2.103201374643331 Q -0.4826278096792038 -2.1572509078591686 -0.498824443828488 -2.2103293576150644 Q -0.5150210779777722 -2.26340780737096 -0.5505851439263878 -2.3087392259304167 Q -0.5867519906537936 -2.354838973618 -0.6333124785187089 -2.382544390422739 Q -0.679872966383624 -2.410249807227477 -0.7321905866845952 -2.4219571631098926 Q -0.7845082069855661 -2.4336645189923085 -0.8410876885536744 -2.430236598033252 Q -0.8976671701217827 -2.426808677074196 -0.9535292267788451 -2.4106003621468552 Q -1.0093912834359076 -2.3943920472195144 -1.0631499521203693 -2.366800982163501 Q -1.116908620804831 -2.339209917107488 -1.1637766976205408 -2.302440289601292 Q -1.2267796861269045 -2.2530122657405043 -1.2705457488491034 -2.201609342465737 Q -1.3143118115713024 -2.1502064191909707 -1.3357941659295263 -2.100460134329604 Q -1.3572765202877501 -2.0507138494682375 -1.354814346763744 -2.004858097008039 Q -1.3523521732397377 -1.9590023445478404 -1.322815915079023 -1.9213542172696476 Q -1.3059380532729001 -1.8998410016821086 -1.2866395512218705 -1.8882948668524095 Q -1.2673410491708408 -1.8767487320227105 -1.2480510555212851 -1.8723330031842937 Q -1.2287610618717297 -1.8679172743458767 -1.210605536383143 -1.868507365618338 Q -1.192450010894556 -1.8690974568907992 -1.1783929619720799 -1.8717473854002173 Q -1.1643359130496036 -1.8743973139096355 -1.1554205262780644 -1.8776680487290647 Q -1.1465051395065249 -1.8809387835484939 -1.1450512554249404 -1.8814587901526159 Q -1.1391529449239335 -1.884224371522562 -1.1331071116048117 -1.8824510715203613 Q -1.1270612782856897 -1.8806777715181604 -1.123143203223554 -1.875683632185339 Q -1.1180195666038382 -1.8691528345962647 -1.119917027868041 -1.8620786688469555 Q -1.1218144891322441 -1.855004503097646 -1.1271927930291288 -1.8507850376461155 Q -1.1348760843103927 -1.8447572298582144 -1.1492642299315414 -1.8393650815349634 Q -1.1636523755526902 -1.8339729332117123 -1.1823990010420107 -1.8313675641662104 Q -1.201145626531331 -1.8287621951207087 -1.222906155914602 -1.8299984717158386 Q -1.244666685297873 -1.8312347483109688 -1.267094744103381 -1.8384637903598302 Q -1.2895228029088892 -1.8456928324086916 -1.3112324280750793 -1.8603122837508963 Q -1.3329420532412695 -1.874931735093101 -1.3516282573837626 -1.898749938065019 Q -1.385685371385403 -1.9421605338041599 -1.3908717391920211 -1.9942573742420941 Q -1.3960581069986393 -2.0463542146800284 -1.374708422303892 -2.1022025731024896 Q -1.3533587376091447 -2.1580509315249508 -1.3073259022133183 -2.2152662187494743 Q -1.2612930668174922 -2.2724815059739973 -1.1925276098501805 -2.326430385675711 Z M -0.901282100493342 -1.7574313235057448 Q -0.9578116865726418 -1.7472157740321355 -1.0004412636773274 -1.7311486371697455 Q -1.043070840782013 -1.7150815003073556 -1.0714990185226894 -1.6927786114921222 Q -1.0876339302133435 -1.68012021513753 -1.098408563538334 -1.6657712929554056 Q -1.1091831968633243 -1.651422370773281 -1.1143492292986468 -1.6374395876239987 Q -1.119515261733969 -1.6234568044747162 -1.118948532017621 -1.6108684927884636 Q -1.1183818023012728 -1.5982801811022107 -1.1114498233451866 -1.5894443961287572 Q -1.1048192347784955 -1.580992775719367 -1.0930024245969514 -1.5766099255668098 Q -1.0811856144154073 -1.5722270754142527 -1.0654974522839535 -1.5739845135335422 Q -1.0498092901525 -1.5757419516528317 -1.0307432487425634 -1.5838731474133336 Q -1.011677207332627 -1.5920043431738355 -0.9905481563091514 -1.6085808145905631 Q -0.9544366872872111 -1.6369115111936976 -0.9316871951045421 -1.6755499023830913 Q -0.9089377029218731 -1.7141882935724848 -0.901282100493342 -1.7574313235057448 Z M 0.14148366239281987 -2.1868263950309967 Q 0.13978516653523318 -2.182802889327026 0.1344930298299947 -2.169985796320479 Q 0.12920089312475627 -2.1571687033139315 0.12073277162238197 -2.1404777651867324 Q 0.11226465012000766 -2.1237868270595333 0.10072321585465618 -2.1054304457961455 Q 0.08918178158930476 -2.0870740645327577 0.07452874094765558 -2.071453381252389 Q 0.05987570030600639 -2.0558326979720207 0.04245736300385647 -2.045171777508855 Q 0.02503902570170649 -2.0345108570456896 0.0050607358073733455 -2.0332265033686547 Q -0.02320123526265888 -2.0314096128011423 -0.043607662991352714 -2.0482014361144945 Q -0.06401409072004652 -2.064993259427847 -0.07453928642765495 -2.0917168171814087 Q -0.0893210839109804 -2.0628770476936973 -0.1111736150537363 -2.0450810151502634 Q -0.1330261461964922 -2.027284982606829 -0.15592808827048382 -2.0258126747331553 Q -0.1739572767117113 -2.02465362385388 -0.18899843455244214 -2.0302920702749154 Q -0.20403959239317299 -2.035930516695951 -0.21503985465825465 -2.047210923407986 Q -0.2260401169233363 -2.0584913301200207 -0.23267753168253094 -2.074211171564584 Q -0.23931494644172557 -2.089931013009147 -0.24053664871988062 -2.1089347521769275 Q -0.24298005327619074 -2.146942230512488 -0.23193113526603812 -2.1767652456625917 Q -0.22088221725588547 -2.206588260812695 -0.2021569553391473 -2.2273636290207866 Q -0.18343169342240906 -2.248138997228878 -0.15993807692902384 -2.25943512661668 Q -0.1364444604356386 -2.270731256004482 -0.11402979372492336 -2.2721722381787166 Q -0.0989242574633544 -2.2731433348613526 -0.08598882957292861 -2.2698159624589396 Q -0.07305340168250282 -2.266488590056527 -0.06372555046749037 -2.2621953618634003 Q -0.054397699252477894 -2.2579021336702736 -0.049258677174474796 -2.2540735500768228 Q -0.0441196550964717 -2.250244966483372 -0.043601054033755415 -2.2497890168195354 Q -0.03783379094499645 -2.2437990197907807 -0.037395231152838215 -2.236977164704911 Q -0.036925345661240117 -2.2296680342557647 -0.041925129113722176 -2.2237197848842474 Q -0.046924912566204235 -2.2177715355127297 -0.05423404301535051 -2.2173016500211316 Q -0.0620304488277732 -2.2168004388300937 -0.0677350605176524 -2.2218158851322958 Q -0.068772262643085 -2.222727784459969 -0.07235548153293919 -2.22518851906191 Q -0.07593870042279344 -2.2276492536638512 -0.08197395897874968 -2.230196997450231 Q -0.08800921753470595 -2.232744741236611 -0.09619022667624627 -2.2344206063305974 Q -0.1043712358177866 -2.2360964714245832 -0.11460401844659138 -2.2354386317363457 Q -0.12970955470816034 -2.2344675350537098 -0.14632563263067677 -2.2265492804874443 Q -0.16294171055319318 -2.218631025921179 -0.17614858795473304 -2.2033479574207684 Q -0.1893554653562729 -2.1880648889203576 -0.1974633413150887 -2.1657702841154793 Q -0.20557121727390448 -2.1434756793106016 -0.20366034960807222 -2.1137518821507397 Q -0.20306516131871463 -2.104493650248488 -0.20050520872653144 -2.095117083462357 Q -0.1979452561343482 -2.0857405166762266 -0.19257129131054607 -2.078257367858203 Q -0.18719732648674392 -2.0707742190401786 -0.1786003883166461 -2.066434002297892 Q -0.17000345014654822 -2.062093785555606 -0.15782156606463776 -2.062876928041603 Q -0.14905060952566226 -2.0634407906315206 -0.1379755468819449 -2.0700242489276746 Q -0.12690048423822758 -2.0766077072238285 -0.1172072064137814 -2.089463093843696 Q -0.10751392858933526 -2.102318480463564 -0.10017698631071312 -2.1213831440082656 Q -0.09284004403209098 -2.1404478075529676 -0.09105805286002946 -2.16600540633942 Q -0.09052206192563486 -2.1728899128241697 -0.08545962707427304 -2.1778636114691343 Q -0.08039719222291125 -2.182837310114099 -0.07308806177376498 -2.183307195605697 Q -0.06626620668789515 -2.1837457553978554 -0.06080523267965415 -2.1787146462459335 Q -0.055344258671413155 -2.1736835370940115 -0.0544184235159785 -2.1668930077075816 Q -0.053335959863344495 -2.1576661015047693 -0.05079339714283962 -2.1409490785700527 Q -0.04825083442233474 -2.124232055635336 -0.04206936932697666 -2.1079936131280563 Q -0.035887904231618584 -2.0917551706207766 -0.02487197911681696 -2.080231126227104 Q -0.013856054002015339 -2.0687070818334305 0.004173134439212134 -2.069866132712706 Q 0.015867743157846143 -2.0706179494992627 0.026911480102123658 -2.0776886831586934 Q 0.03795521704640112 -2.0847594168181236 0.048245410182163245 -2.095940665365964 Q 0.05853560331792537 -2.107121913913804 0.06766329153049547 -2.121164163242423 Q 0.07679097974306551 -2.135206412571042 0.08419754133444815 -2.1493826596332593 Q 0.0916041029258308 -2.163558906695477 0.09712421446298755 -2.1766353002333823 Q 0.10264432600014431 -2.1897116937712875 0.10643461598027446 -2.1992518569684982 Q 0.10852641010281797 -2.204768514461738 0.11296757185730469 -2.2079897607860755 Q 0.11740873361179141 -2.2112110071104127 0.12276876260783195 -2.2115555898042514 Q 0.13105244378353106 -2.212088126694729 0.1365604063409319 -2.206326104497893 Q 0.14206836889833266 -2.200564082301056 0.1425069286904909 -2.193742227215186 Q 0.14272620858657 -2.190331299672251 0.14148366239281987 -2.1868263950309967 Z M 0.2420214923091185 -2.061809394403382 Q 0.2540428975857701 -2.075081877368754 0.26929844807793213 -2.0907152826474547 Q 0.2845539985700942 -2.106348687926155 0.30135256015038614 -2.1220395612213854 Q 0.31815112173067805 -2.137730434516616 0.33605277827927293 -2.1528443309881657 Q 0.3539544348278678 -2.167958227459715 0.37247947388127695 -2.180854871659262 Q 0.3908674522308321 -2.1932828657307173 0.4068170719192814 -2.1965036519524515 Q 0.4227666916077308 -2.199724438174186 0.43495159493812213 -2.1961608598739835 Q 0.45932140159890494 -2.1890337032735787 0.4658293480547546 -2.1677984808097355 Q 0.47233729451060436 -2.146563258345892 0.4646618950947838 -2.120318851172741 Q 0.4628801059446826 -2.114226399507545 0.4596415077312468 -2.1057619631936246 Q 0.456402909517811 -2.097297526879704 0.4528216595447403 -2.0876614652455534 Q 0.4492404095716696 -2.0780254036114028 0.445590629246672 -2.0681550169132064 Q 0.44194084892167435 -2.05828463021501 0.4393366955484495 -2.049380277781262 Q 0.43604723865595496 -2.0381326747070547 0.4342035284913983 -2.0274797201293966 Q 0.4323598183268416 -2.016826765551738 0.43337886760989547 -2.008134613511243 Q 0.4343979168929493 -1.9994424614707478 0.4391882918715326 -1.9932084961037728 Q 0.44397866685011583 -1.9869745307367979 0.4538203195400473 -1.9840962559558653 Q 0.4716290244075424 -1.9788879492094156 0.49254371978254474 -1.987778942649387 Q 0.5134584151575471 -1.9966699360893585 0.5333032025704368 -2.0114699148095383 Q 0.5531479899833266 -2.0262698935297183 0.5694491674272615 -2.0428693330728676 Q 0.5857503448711964 -2.0594687726160172 0.5944690745804104 -2.070146008204015 Q 0.5983199929632637 -2.0746158560937573 0.6035945334032611 -2.0761256801756964 Q 0.6088690738432585 -2.077635504257636 0.6140242252522703 -2.076127836515243 Q 0.6219912774298337 -2.073797804549726 0.6251988449766253 -2.06650054055811 Q 0.6284064125234168 -2.059203276566494 0.6264875626694617 -2.052642174773206 Q 0.6255281377424842 -2.049361623876562 0.6231627624312306 -2.04649225509148 Q 0.6201916762880313 -2.04329129688216 0.611141357154579 -2.033219772126108 Q 0.6020910380211268 -2.023148247370056 0.5884978876480804 -2.0105898019322184 Q 0.5749047372750338 -1.998031356494381 0.5577171182539737 -1.9844892051192262 Q 0.5405294992329136 -1.9709470537440716 0.5216551990823982 -1.9612049620727114 Q 0.5027808989318828 -1.9514628704013512 0.4829339551794469 -1.9470925835301804 Q 0.46308701142701103 -1.9427222966590096 0.444341006303332 -1.948204724813167 Q 0.42325175053919306 -1.9543724564865943 0.4125281092700616 -1.9664115334361143 Q 0.4018044680009303 -1.978450610385634 0.3982122960112959 -1.9940001102979183 Q 0.39462012402166147 -2.0095496102102026 0.39677114260011653 -2.0264718735005727 Q 0.3989221611785715 -2.0433941367909423 0.40371928581345934 -2.0597968912741615 Q 0.4057751963712684 -2.066826643195541 0.4090823249366312 -2.075525404573508 Q 0.412389453501994 -2.0842241659514746 0.41643935360315665 -2.0937231668817713 Q 0.4204892537043193 -2.103222167812068 0.42407050367738996 -2.112858229446218 Q 0.42765175365046065 -2.122494291080369 0.43025590702368544 -2.1313986435141166 Q 0.43464184954701146 -2.1463954476130596 0.431531546360412 -2.1531555311246566 Q 0.4284212431738126 -2.1599156146362537 0.4246720421490768 -2.1610121002670852 Q 0.41717364009960517 -2.1632050715287483 0.40503068945242177 -2.157344788588053 Q 0.3928877388052384 -2.151484505647357 0.37823128980755083 -2.1405088676413113 Q 0.3635748408098632 -2.1295332296352654 0.34742178640517907 -2.115179776372384 Q 0.33126873200049495 -2.1008263231095023 0.31659015833201376 -2.086296012799105 Q 0.3019115846635325 -2.0717657024887077 0.289118673842816 -2.05846448551507 Q 0.2763257630220995 -2.045163268541433 0.2686239262563931 -2.036223572761949 Q 0.25349437413268816 -2.019281481459165 0.2421339913649665 -2.0152272686789097 Q 0.23077360859724488 -2.011173055898655 0.2209319559073134 -2.0140513306795875 Q 0.20734110219264607 -2.018026091091352 0.20153828726848044 -2.0286260306504054 Q 0.19573547234431476 -2.039225970209459 0.2001214148676408 -2.054222774308402 Q 0.20108083979461838 -2.057503325205046 0.20482788447980804 -2.0668365314232235 Q 0.20857492916499776 -2.0761697376414014 0.2138871096091109 -2.089115084180461 Q 0.21919929005322408 -2.1020604307195203 0.22512824366467998 -2.1171147028349937 Q 0.23105719727613586 -2.132168974950467 0.23691762053566479 -2.1469889220018943 Q 0.24277804379519372 -2.161808869053322 0.24755304375928794 -2.174656951232189 Q 0.25232804372338213 -2.187505033411057 0.25493219709660697 -2.196409385844804 Q 0.25835871469295546 -2.2081256390471036 0.2605738106254121 -2.219178713400927 Q 0.2627889065578687 -2.23023178775475 0.2606623093085865 -2.233397402618334 Q 0.25603327604419696 -2.233224998568743 0.24052572881512063 -2.2202089653382107 Q 0.2250181815860443 -2.207192932107678 0.19622249573944053 -2.171354556302418 Q 0.19237157735658733 -2.166884708412676 0.18686271185254394 -2.1654434146826635 Q 0.18135384634850055 -2.164002120952651 0.1761986949394888 -2.1655097886950445 Q 0.16823164276192523 -2.167839820660561 0.16512133957532577 -2.1745999041721586 Q 0.1620110363887263 -2.1813599876837557 0.16406694694653537 -2.1883897396051353 Q 0.16502637187351293 -2.191670290501779 0.16752880788862037 -2.195008309414953 Q 0.20328355896513067 -2.2389861414473673 0.22871680456938762 -2.257239075113781 Q 0.25415005017364456 -2.2754920087801955 0.27242740516923164 -2.270146641329892 Q 0.28320635811534706 -2.2669942451412517 0.2891285620704984 -2.2594117974065306 Q 0.2950507660256497 -2.25182934967181 0.29689878886929866 -2.24162292055145 Q 0.2987468117129476 -2.23141649143109 0.29770334110072094 -2.220020765317632 Q 0.29665987048849424 -2.2086250392041737 0.2933704135959997 -2.1973774361299663 Q 0.29090332092662885 -2.188941733824311 0.2845233888599492 -2.1714756807164504 Q 0.27814345679326963 -2.1540096276085903 0.2703067156632554 -2.134171589852005 Q 0.26246997453324117 -2.11433355209542 0.25493608881919994 -2.0946613090509536 Q 0.24740220310515865 -2.0749890660064874 0.2420214923091185 -2.061809394403382 Z M 0.8249735570483276 -2.180326272400558 Q 0.8148858918178186 -2.164753365208263 0.7969910189440209 -2.1609281306822807 Q 0.7790961460702233 -2.1571028961562986 0.7635232388779283 -2.167190561386808 Q 0.7479503316856333 -2.1772782266173167 0.744125097159651 -2.1951730994911145 Q 0.7402998626336688 -2.213067972364912 0.7503875278641778 -2.228640879557207 Q 0.7554313604794325 -2.2364273331533546 0.7626802243386289 -2.241330999260178 Q 0.7699290881978254 -2.2462346653670022 0.7783700659684846 -2.2480390212754844 Q 0.7868110437391438 -2.2498433771839665 0.7954312180887868 -2.2483319001850894 Q 0.8040513924384297 -2.246820423186212 0.8118378460345772 -2.2417765905709572 Q 0.8196242996307247 -2.236732757955703 0.8245279657375486 -2.2294838940965063 Q 0.8294316318443723 -2.22223503023731 0.8312359877528546 -2.2137940524666506 Q 0.8330403436613367 -2.2053530746959913 0.8315288666624594 -2.1967329003463485 Q 0.8300173896635823 -2.1881127259967057 0.8249735570483276 -2.180326272400558 Z M 0.603021378358061 -1.9831809606283897 Q 0.6412483202842008 -2.0421940826202443 0.6865864375848354 -2.0960190235241662 Q 0.6911225725219858 -2.1012254806355113 0.6982129938493395 -2.102741139598636 Q 0.7053034151766934 -2.104256798561761 0.7122702420785095 -2.099743895695481 Q 0.7184174422859945 -2.0957619225781747 0.7194627297010496 -2.0883944203408986 Q 0.7205080171161047 -2.081026918103623 0.7165260439987985 -2.074879717896138 Q 0.714933254751876 -2.072420837813144 0.7059447751493494 -2.060790099584392 Q 0.6969562955468228 -2.04915936135564 0.6845051565405291 -2.0330812345089697 Q 0.6720540175342353 -2.0170031076623 0.6586853675026719 -1.9986104492053145 Q 0.6453167174711085 -1.9802177907483292 0.6349635873661122 -1.9642350702088684 Q 0.620893949018297 -1.9425149628090885 0.6165693807427062 -1.9264086478440903 Q 0.6122448124671154 -1.910302332879092 0.6142283649545813 -1.8985455222010734 Q 0.6162119174420472 -1.8867887115230546 0.6222006751176894 -1.8794187312620496 Q 0.6281894327933316 -1.8720487510010446 0.6351562596951478 -1.8675358481347644 Q 0.6466310334157862 -1.860102831649126 0.6642347313204976 -1.8603351523578266 Q 0.681838429225209 -1.8605674730665274 0.7043042851424621 -1.8669586100181481 Q 0.7267701410597154 -1.8733497469697686 0.753290144330614 -1.8855504450180478 Q 0.7798101476015127 -1.897751143066327 0.8089731835818472 -1.9149301594814983 Q 0.8136768990625464 -1.9177009685807194 0.8188252759967162 -1.9175657581197467 Q 0.8239736529308861 -1.917430547658774 0.8284815997497084 -1.9145104340394161 Q 0.8350386133043588 -1.910262996047623 0.8361560749557533 -1.9025578546995205 Q 0.8372735366071478 -1.8948527133514184 0.8335570283643285 -1.8891153264910991 Q 0.8309023796194577 -1.8850171930194426 0.8274048721093855 -1.8832103590872313 Q 0.8163814198301947 -1.876970230596266 0.8002444387231392 -1.8682247578805669 Q 0.7841074576160836 -1.8594792851648676 0.7653904800242256 -1.8512415101272726 Q 0.7466735024323676 -1.8430037350896773 0.7262450972155077 -1.836165458660857 Q 0.7058166919986477 -1.8293271822320365 0.6858121941881177 -1.8262867262940803 Q 0.6658076963775874 -1.8232462703561243 0.6473611397076747 -1.8253052491868689 Q 0.6289145830377619 -1.8273642280176134 0.6145711158869639 -1.8366554986246613 Q 0.5961295152645092 -1.84860141797658 0.5872396940761314 -1.8654136773052883 Q 0.5783498728877536 -1.8822259366339966 0.5772141352129473 -1.901578388293744 Q 0.5760783975381409 -1.9209308399534917 0.5829132660859239 -1.941810566611799 Q 0.5897481346337069 -1.9626902932701067 0.603021378358061 -1.9831809606283897 Z M 0.8020240096070508 -2.1951923053718345 Q 0.80574051784987 -2.2009296922321537 0.8042248588867449 -2.208020113559508 Q 0.8027091999236198 -2.2151105348868616 0.7969718130633006 -2.2188270431296804 Q 0.7912344262029813 -2.2225435513724996 0.7843489115492105 -2.220895159972131 Q 0.7774633968954395 -2.2192467685717627 0.7737468886526204 -2.2135093817114435 Q 0.7700303804098012 -2.2077719948511243 0.771473865136587 -2.2010192126345967 Q 0.7729173498633728 -2.1942664304180695 0.778654736723692 -2.1905499221752502 Q 0.7843921235840112 -2.186833413932431 0.7913498124741214 -2.1881441662219734 Q 0.7983075013642317 -2.1894549185115153 0.8020240096070508 -2.1951923053718345 Z M 0.8089325928294584 -1.779790022039573 Q 0.8062233762049053 -1.7625182889566005 0.8116284246406589 -1.7450987891389074 Q 0.8170334730764125 -1.7276792893212143 0.8336570004507871 -1.7111573419818895 Q 0.8506268513121278 -1.6942911874063287 0.8725686608423175 -1.6886614999005956 Q 0.8945104703725074 -1.6830318123948624 0.9190190204193553 -1.68483326610379 Q 0.9435275704662033 -1.6866347198127174 0.9687097212304117 -1.6939625355579915 Q 0.99389187199462 -1.7012903513032656 1.0173424053239977 -1.7103392032297193 Q 1.0228603023574236 -1.7124277254051672 1.0278703535394165 -1.7112346394573577 Q 1.0328804047214093 -1.710041553509548 1.0366899630780368 -1.7062552739109527 Q 1.0425774623564612 -1.700403750894942 1.0420833721347744 -1.6926336930708707 Q 1.0415892819130876 -1.6848636352468 1.0367703806057846 -1.680015106429274 Q 1.035049344424605 -1.6782834889944434 1.033498295610813 -1.6774155640262978 Q 1.0319472467970212 -1.6765476390581522 1.0298777708781452 -1.6758507595827596 Q 0.95366195036962 -1.6469598888641863 0.8989326289917131 -1.6483458701210223 Q 0.8442033076138062 -1.6497318513778585 0.8078435739838223 -1.6844925497362273 Q 0.7849862238440574 -1.7072102273277987 0.7771399809936991 -1.73256342358476 Q 0.7692937381433409 -1.7579166198417213 0.7724981031149459 -1.7826131453871636 Q 0.775702468086551 -1.807309670932606 0.7880621848300915 -1.830135277311418 Q 0.800421901573632 -1.8529608836902298 0.8179764706216646 -1.870623381525503 Q 0.8355310396696972 -1.8882858793607757 0.854660994414919 -1.8988751988473704 Q 0.8737909491601408 -1.9094645183339651 0.8929441826633948 -1.912457999865337 Q 0.9120974161666489 -1.915451481396709 0.9295486597452951 -1.9104985689844316 Q 0.9469999033239413 -1.9055456565721542 0.9605065193156206 -1.892121574358953 Q 0.9684719595158418 -1.8842048079255265 0.9729942692283384 -1.8731700719840396 Q 0.9775165789408351 -1.862135336042553 0.9777267750720967 -1.8498789447683988 Q 0.9779369712033583 -1.8376225534942445 0.9731413486540875 -1.8251781867214958 Q 0.9683457261048167 -1.8127338199487473 0.9573310945452669 -1.801651468365831 Q 0.9432185978595936 -1.7874522054002193 0.9259786085375741 -1.7798034611767415 Q 0.9087386192155547 -1.7721547169532637 0.8895832694615704 -1.7698517661450939 Q 0.8704279197075862 -1.7675488153369239 0.8497035330086034 -1.770247450707826 Q 0.8289791463096204 -1.7729460860787283 0.8089325928294584 -1.779790022039573 Z M 0.8209163585758099 -1.81262726577945 Q 0.8361270807428273 -1.8064590467866957 0.8518424743851825 -1.8046082320020023 Q 0.8675578680275375 -1.8027574172173086 0.8820526644625903 -1.804873450652249 Q 0.8965474608976431 -1.8069894840871896 0.9091321875275568 -1.8127249841294328 Q 0.9217169141574704 -1.818460484171676 0.9310105095358405 -1.827811218319762 Q 0.9413367266229185 -1.838200922928746 0.9414770864800834 -1.84873204552026 Q 0.9416174463372484 -1.8592631681117742 0.9346909765979257 -1.8661473128364927 Q 0.92534024244984 -1.8754409082148629 0.9135969876539444 -1.8767859933988535 Q 0.9018537328580488 -1.8781310785828442 0.8894368773447928 -1.8739498017304883 Q 0.8770200218315368 -1.8697685248781322 0.864961129184263 -1.8614451218119288 Q 0.8529022365369893 -1.8531217187457254 0.8429202266861472 -1.8430783376237074 Q 0.8367244964339005 -1.836844514858317 0.8310524839135632 -1.8287133197921686 Q 0.825380471393226 -1.82058212472602 0.8209163585758099 -1.81262726577945 Z M 1.1737771041715088 -1.4333916161339721 Q 1.1614173832627626 -1.431905219324936 1.1441143705888819 -1.430460904372631 Q 1.1268113579150012 -1.4290165894203262 1.1072999509415473 -1.428772727284172 Q 1.0877885439680934 -1.4285288651480177 1.0671744313407636 -1.4304768308708031 Q 1.0465603187134338 -1.4324247965935886 1.0276536126357874 -1.4380599359598143 Q 1.008746906558141 -1.4436950753260402 0.9929150557629584 -1.4535965738154162 Q 0.9770832049677758 -1.463498072304792 0.9668745615715333 -1.4795734652648982 Q 0.9511689563465446 -1.5043048390496767 0.9551642864359163 -1.5317141134841779 Q 0.959159616525288 -1.5591233879186788 0.9760381876975724 -1.5871946800360566 Q 0.9929167588698569 -1.6152659721534346 1.0196066988344115 -1.6429161257322684 Q 1.046296638798966 -1.6705662793111022 1.0764481081929664 -1.6954981018650086 Q 1.1065995775869668 -1.7204299244189147 1.136597634513149 -1.7415045944209293 Q 1.1665956914393312 -1.7625792644229437 1.1905026860979506 -1.777761349473766 Q 1.2251266093966409 -1.79974919678875 1.2636633505527661 -1.8210405620292949 Q 1.3022000917088914 -1.8423319272698395 1.3407895151787383 -1.8598970200020342 Q 1.3793789386485855 -1.8774621127342286 1.4159600966167563 -1.8899921325226572 Q 1.452541254584927 -1.9025221523110858 1.4831231314641666 -1.9071934035033773 Q 1.5137050083434063 -1.9118646546956686 1.5363575363618578 -1.9071622420748673 Q 1.5590100643803093 -1.9024598294540658 1.5700039880378014 -1.8851478678047207 Q 1.578642070911545 -1.8715456122230925 1.5791897749915138 -1.8565653074516932 Q 1.5797374790714827 -1.8415850026802938 1.5700225259311917 -1.8250039874969501 Q 1.5603075727909008 -1.8084229723136067 1.539842558129272 -1.7896425118061543 Q 1.5193775434676433 -1.770862051298702 1.4859901888581923 -1.7496594842449673 Q 1.4447712325502278 -1.723483475536653 1.3953760822534997 -1.7042620070869707 Q 1.3459809319567715 -1.6850405386372886 1.2920410960091768 -1.6716092735031765 Q 1.238101260061582 -1.658178008369064 1.1809646377634464 -1.650236087598529 Q 1.1238280154653106 -1.6422941668279936 1.0671261151545308 -1.638677253477973 Q 1.0213220428204945 -1.5951289833414228 1.0024322231547125 -1.5588394153785499 Q 0.9835424034889302 -1.5225498474156771 0.9989862486268356 -1.4982306631939781 Q 1.0094566521101613 -1.4817430806707923 1.0321257465692464 -1.4747375095799644 Q 1.0547948410283314 -1.4677319384891365 1.0806335549403336 -1.4662097457782428 Q 1.1064722688523356 -1.4646875530673489 1.1309660664558339 -1.4666494222101771 Q 1.1554598640593317 -1.4686112913530054 1.169991863394563 -1.4703203493842147 Q 1.1754225594607752 -1.470877002439648 1.1800454428414615 -1.4686069768508885 Q 1.1846683262221478 -1.466336951262129 1.1875476871800625 -1.461802866068253 Q 1.191997608660476 -1.454795643495899 1.189799814817893 -1.447326532038565 Q 1.1876020209753104 -1.4398574205812311 1.1814191775291158 -1.435931019274984 Q 1.1789460401506378 -1.434360458752485 1.1737771041715088 -1.4333916161339721 Z M 1.2083355049008713 -1.7451261422442972 Q 1.1819553728637742 -1.7283734966709763 1.1584214689033245 -1.711693082843832 Q 1.134887564942875 -1.6950126690166876 1.1139381289719898 -1.6788166764987995 Q 1.158319407238933 -1.682707281903189 1.2059816355698798 -1.6909951264742702 Q 1.2536438639008267 -1.6992829710453512 1.2997746305741846 -1.7118040418583154 Q 1.3459053972475425 -1.7243251126712795 1.3886137333563646 -1.7413246033725764 Q 1.4313220694651867 -1.7583240940738734 1.465945992763877 -1.7803119413888573 Q 1.514584361207275 -1.8111996316646681 1.530632587269757 -1.8323809978044219 Q 1.5466808133322392 -1.8535623639441754 1.5383044905455785 -1.8667524299627238 Q 1.5328075287168326 -1.8754084107873963 1.5157497096894015 -1.8758550647420384 Q 1.4986918906619708 -1.8763017186966802 1.4736324910275749 -1.870220936914877 Q 1.4485730913931794 -1.8641401551330739 1.4168795598845996 -1.8521111230945353 Q 1.3851860283760198 -1.8400820910559965 1.3505485216285176 -1.823580605112768 Q 1.3159110148810156 -1.8070791191695394 1.2794352215402884 -1.7870965543644104 Q 1.2429594281995615 -1.7671139895592813 1.2083355049008713 -1.7451261422442972 Z" fill="#ffffff" fill-rule="nonzero"></path></g><g clip-path="url(&quot;#SvgjsClipPath1009&quot;)"><g clip-path="url(&quot;#SvgjsClipPath1008&quot;)"><path d=" M 0.2764084039206307 -0.2091795374951364 C 0.27285213909493033 -0.22237875117514072 0.24478956216905035 -0.24604159020768557 0.22338358350666065 -0.2671512134679337 C 0.18424187385455948 -0.3057002123157504 0.1827828934132465 -0.3926691245596452 0.1827828934132465 -0.3926691245596452 L -0.18196221691500825 -0.3926691245596452 C -0.18196221691500825 -0.3926691245596452 -0.17662781967645713 -0.30499351866449076 -0.21576952932855842 -0.266421723247277 C -0.2376086428094627 -0.24490176173791056 -0.2622061411872241 -0.22431645957376012 -0.2622061411872241 -0.20765216734563774 L -0.2622061411872241 -0.2073102188047058 C -0.2622061411872241 -0.20427827507510177 -0.2682928252158272 -0.2008131965269826 -0.2651013055004553 -0.19851074301803528 C -0.2579887758490541 -0.19224168643426975 -0.24654489801250523 -0.18750000000000133 -0.21367224494417103 -0.18750000000000133 L 0.2203972329158479 -0.18750000000000133 C 0.2351404904183454 -0.18689744042368228 0.24984698887549084 -0.1893821708916259 0.26357393535095475 -0.19479490220656648 C 0.27440230581382496 -0.19775845622798394 0.2778217912231524 -0.20268251521741565 0.2764539970594213 -0.20847284384387677 C 0.2766486691544763 -0.209349109123665 0.27675558082944574 -0.2102425852644807 0.27677314903095906 -0.21114004246315288 Z" fill="#ffffff" transform="matrix(1,0,0,1,0,0)" fill-rule="nonzero"></path></g><g clip-path="url(&quot;#SvgjsClipPath1008&quot;)"><path d=" M -0.27583848968574265 -0.2069682702637714 L -0.27583848968574265 -0.2069682702637714 C -0.27583848968574265 -0.2071278462495414 -0.27583848968574265 -0.20721903252712348 -0.27583848968574265 -0.2073786085128908 Z" fill="#ffffff" transform="matrix(1,0,0,1,0,0)" fill-rule="nonzero"></path></g><g clip-path="url(&quot;#SvgjsClipPath1008&quot;)"><path d=" M 0.8338985084879722 -1.6008873025219874 L -0.8418545112070078 -1.6008873025219874 C -0.8740954082729059 -1.5957410444360152 -0.8984498327170299 -1.5689142338464535 -0.9004644911228792 -1.536327417993887 L -0.9004644911228792 -0.45401469280297846 C -0.9004644911228792 -0.43721362115848184 -0.889932476062151 -0.429713549827359 -0.8759581790227 -0.4215523779837642 C -0.8655544934262199 -0.41577567992496745 -0.8535213435969371 -0.4136337792553555 -0.8417633249294256 -0.41546569395516175 L 0.8339896947655545 -0.41546569395516175 C 0.8473451220985833 -0.4135950385022853 0.860953825879895 -0.4158207610833413 0.8730174215706783 -0.42184873338590445 C 0.8855555347382122 -0.430009905229499 0.9005556774004619 -0.4373959937136478 0.9005556774004619 -0.45401469280297846 L 0.9005556774004619 -1.536327417993887 C 0.8949777298240997 -1.5701780069693276 0.8679100692141608 -1.5963940175190368 0.8338985084879711 -1.6008873025219874 Z M 0.8320747829363311 -0.6434313879103184 L -0.8092782135408156 -0.6434313879103184 L -0.8092782135408156 -1.53249759433544 L 0.8320747829363311 -1.53249759433544 Z" fill="#ffffff" transform="matrix(1,0,0,1,0,0)" fill-rule="nonzero"></path></g></g></g><defs><clipPath id="SvgjsClipPath1009"><path d=" M -0.9004644911228792 -1.6008873025219874 h 1.8009289822457584 v 1.4133873025219874 h -1.8009289822457584 Z"></path></clipPath><clipPath id="SvgjsClipPath1008"><path d=" M -0.9004644911228792 -1.6008873025219874 L 0.9004644911228792 -1.6008873025219874 L 0.9004644911228792 -0.1875 L -0.9004644911228792 -0.1875 Z"></path></clipPath></defs></svg>